{"title":"DJ Khaled Ft. Drake, Rick Ross &amp; Lil Wayne - I'm On One [Exp","uid":9399672,"size":60638805,"categoryP":"video","categoryS":"music_videos","magnet":"?xt=urn:btih:ed2e3eacf176206dbc4dcfcd29a22d60ac602ce5&amp;dn=DJ+Khaled+Ft.+Drake%2C+Rick+Ross+%26amp%3B+Lil+Wayne+-+I%27m+On+One+%5BExp&amp;tr=udp%3A%2F%2Ftracker.openbittorrent.com%3A80&amp;tr=udp%3A%2F%2Fopen.demonii.com%3A1337&amp;tr=udp%3A%2F%2Ftracker.coppersurfer.tk%3A6969&amp;tr=udp%3A%2F%2Fexodus.desync.com%3A6969","seeders":0,"leechers":1,"uploader":"Sbyky","files":1,"time":1388049800,"description":"\n\nGeneral\nComplete name                            : DJ Khaled Ft. Drake, Rick Ross &amp; Lil Wayne - I'm On One [Explicit] 720p [Sbyky].mp4\nFormat                                   : MPEG-4\nFormat profile                           : Base Media\nCodec ID                                 : isom\nFile size                                : 57.8 MiB\nDuration                                 : 5mn 18s\nOverall bit rate mode                    : Variable\nOverall bit rate                         : 1 522 Kbps\nEncoded date                             : UTC 2013-11-12 07:05:56\nTagged date                              : UTC 2013-11-12 07:05:56\n\nVideo\nID                                       : 1\nFormat                                   : AVC\nFormat/Info                              : Advanced Video Codec\nFormat profile                           : &lt;a class=&quot;__cf_email__&quot; href=&quot;/cdn-cgi/l/email-protection&quot; data-cfemail=&quot;efa28e8681afa3dcc1de&quot;&gt;[email&amp;#160;protected]&lt;/a&gt;&lt;script cf-hash='f9e31' type=&quot;text/javascript&quot;&gt;\n/* &lt;![CDATA[ */!function(){try{var t=&quot;currentScript&quot;in document?document.currentScript:function(){for(var t=document.getElementsByTagName(&quot;script&quot;),e=t.length;e--;)if(t[e].getAttribute(&quot;cf-hash&quot;))return t[e]}();if(t&amp;&amp;t.previousSibling){var e,r,n,i,c=t.previousSibling,a=c.getAttribute(&quot;data-cfemail&quot;);if(a){for(e=&quot;&quot;,r=parseInt(a.substr(0,2),16),n=2;a.length-n;n+=2)i=parseInt(a.substr(n,2),16)^r,e+=String.fromCharCode(i);e=document.createTextNode(e),c.parentNode.replaceChild(e,c)}}}catch(u){}}();/* ]]&gt; */&lt;/script&gt;\nFormat settings, CABAC                   : Yes\nFormat settings, ReFrames                : 3 frames\nCodec ID                                 : avc1\nCodec ID/Info                            : Advanced Video Coding\nDuration                                 : 5mn 18s\nDuration_LastFrame                       : -42ms\nBit rate                                 : 1 393 Kbps\nWidth                                    : 1 280 pixels\nHeight                                   : 720 pixels\nDisplay aspect ratio                     : 16:9\nFrame rate mode                          : Constant\nFrame rate                               : 23.976 fps\nColor space                              : YUV\nChroma subsampling                       : 4:2:0\nBit depth                                : 8 bits\nScan type                                : Progressive\nBits/(Pixel*Frame)                       : 0.063\nStream size                              : 52.9 MiB (92%)\nEncoded date                             : UTC 2013-11-12 07:05:56\nTagged date                              : UTC 2013-11-12 07:05:56\n\nAudio\nID                                       : 2\nFormat                                   : AAC\nFormat/Info                              : Advanced Audio Codec\nFormat profile                           : LC\nCodec ID                                 : 40\nDuration                                 : 5mn 18s\nBit rate mode                            : Variable\nBit rate                                 : 126 Kbps\nChannel(s)                               : 2 channels\nChannel positions                        : Front: L R\nSampling rate                            : 44.1 KHz\nCompression mode                         : Lossy\nDelay relative to video                  : 42ms\nStream size                              : 4.77 MiB (8%)\nEncoded date                             : UTC 2013-11-12 07:05:12\nTagged date                              : UTC 2013-11-12 07:05:12\n\nShared By Sbyky\n","torrent":{"xt":"urn:btih:ed2e3eacf176206dbc4dcfcd29a22d60ac602ce5","amp;dn":"DJ+Khaled+Ft.+Drake%2C+Rick+Ross+%26amp%3B+Lil+Wayne+-+I%27m+On+One+%5BExp","amp;tr":["udp%3A%2F%2Ftracker.openbittorrent.com%3A80","udp%3A%2F%2Fopen.demonii.com%3A1337","udp%3A%2F%2Ftracker.coppersurfer.tk%3A6969","udp%3A%2F%2Fexodus.desync.com%3A6969"],"infoHash":"ed2e3eacf176206dbc4dcfcd29a22d60ac602ce5","infoHashBuffer":{"type":"Buffer","data":[237,46,62,172,241,118,32,109,188,77,207,205,41,162,45,96,172,96,44,229]},"announce":[],"urlList":[]}}